<svg data-v-0dd9719b="" version="1.0" xmlns="http://www.w3.org/2000/svg" xmlns:xlink="http://www.w3.org/1999/xlink" width="100%" height="100%" viewBox="0 0 340.000000 250.000000" preserveAspectRatio="xMidYMid meet" color-interpolation-filters="sRGB" style="margin: auto;">   <g data-v-0dd9719b="" fill="#333" class="icon-text-wrapper icon-svg-group iconsvg" transform="translate(46.5,92.57352828979492)"><g class="iconsvg-imagesvg" transform="translate(0,0)"><g><rect fill="#333" fill-opacity="0" stroke-width="2" x="0" y="0" width="59.99999999999999" height="64.85294594506955" class="image-rect"></rect> <svg x="0" y="0" width="59.99999999999999" height="64.85294594506955" filtersec="colorsb2204024157" class="image-svg-svg primary" style="overflow: visible;"><svg xmlns="http://www.w3.org/2000/svg" viewBox="0 0 136 147"><title>资源 109</title><path fill="#4b00ff" opacity=".8" d="M0 0h53v147H0z"></path><path fill="#e90000" opacity=".8" d="M83 0h53v147H83z"></path><path fill="#4b00ff" opacity=".7" d="M0 100V47h136v53z"></path></svg></svg> <!----></g></g> <g transform="translate(67,11.000223159790039)"><g data-gra="path-name" fill-rule="" class="tp-name iconsvg-namesvg" transform="translate(0,0)"><g transform="scale(1)"><g><path d="M2.96-27.9L0 0 3.99 0 5.32-12.5 17.03-12.5 15.7 0 19.65 0 22.61-27.9 18.62-27.9 17.45-16.42 5.7-16.42 6.92-27.9 2.96-27.9ZM24.67-19.38L22.61 0 39.64 0 40.97-3.91 27.06-3.91 27.44-7.87 41.39-7.87 42.61-19.38 24.67-19.38ZM38.12-11.48L27.82-11.48 28.24-15.43 38.54-15.43 38.12-11.48ZM42.61 0L44.66-19.38 62.6-19.38 61.11-5.66 60.89 0 57.43 0 57.35-1.94 53.32 0 42.61 0ZM48.23-15.43L46.98-3.91 53.7-3.91 57.16-5.7 58.15-15.43 48.23-15.43ZM65.49-27.9L62.6 0 68.83 0 70.16-3.91 66.97-3.91 69.48-27.9 65.49-27.9ZM74.76-15.47L73.12 0 80.65 0 81.98-3.91 77.5-3.91 78.75-15.47 83.84-15.47 84.26-19.42 79.17-19.42 79.66-24.4 75.71-24.4 75.18-19.42 70.58-19.42 70.16-15.47 74.76-15.47ZM87.23-27.9L84.26 0 88.29 0 89.89-15.47 99.88-15.47 98.25 0 102.2 0 104.25-19.42 90.3-19.42 91.22-27.9 87.23-27.9ZM106.3-19.38L104.25 0 121.28 0 122.61-3.91 108.7-3.91 109.88-15.43 123.83-15.43 124.24-19.38 106.3-19.38ZM124.24 0L126.3-19.38 144.24-19.38 142.75-5.66 142.53 0 139.07 0 138.99-1.94 134.96 0 124.24 0ZM129.87-15.43L128.61-3.91 135.34-3.91 138.8-5.7 139.79-15.43 129.87-15.43ZM154.95-19.38L160.01-19.38 149.06-8.36 148.19 0 144.24 0 146.25-19.38 150.2-19.38 149.63-13.87 154.95-19.38ZM162.06-19.38L160.01 0 177.04 0 178.37-3.91 164.46-3.91 164.84-7.87 178.78-7.87 180-19.38 162.06-19.38ZM175.52-11.48L165.22-11.48 165.63-15.43 175.93-15.43 175.52-11.48Z" transform="translate(0, 27.899999618530273)"></path></g> <!----> <!----> <!----> <!----> <!----> <!----> <!----></g></g> <g data-gra="path-slogan" fill-rule="" class="tp-slogan iconsvg-slogansvg" fill="#333" transform="translate(5,33.89999961853027)"><rect x="0" height="1" y="3.9750003814697266" width="66.48500061035156"></rect> <rect height="1" y="3.9750003814697266" width="66.48500061035156" x="103.51499938964844"></rect> <g transform="translate(69.48500061035156,0)"><g transform="scale(1)"><path d="M4.41 0L0.94 0L0.94-8.58L4.45-8.58Q7.92-8.39 8.06-4.41L8.06-4.41Q7.88-0.09 4.41 0L4.41 0ZM4.27-7.64L2.11-7.64L2.11-0.98L4.36-0.98Q6.80-1.13 6.89-4.31L6.89-4.31Q6.84-7.55 4.27-7.64L4.27-7.64ZM15.19 0L14.34-2.48L10.88-2.48L9.98 0L8.81 0L12.05-8.58L13.36-8.58L16.45 0L15.19 0ZM12.61-7.31L11.25-3.52L13.92-3.52L12.66-7.31L12.61-7.31ZM23.16 0L22.31-2.48L18.84-2.48L17.95 0L16.78 0L20.02-8.58L21.33-8.58L24.42 0L23.16 0ZM20.58-7.31L19.22-3.52L21.89-3.52L20.63-7.31L20.58-7.31ZM31.73-6.09L31.73-6.09L30.66-6.09Q30.56-7.73 28.50-7.83L28.50-7.83Q26.58-7.78 26.58-6.33L26.58-6.33Q26.58-5.39 27.61-5.25L27.61-5.25L30.05-4.69Q31.97-4.22 31.97-2.34L31.97-2.34Q31.92 0.05 28.59 0.14L28.59 0.14Q26.77 0.14 26.02-0.61L26.02-0.61Q25.08-1.31 25.13-2.77L25.13-2.77L26.25-2.77Q26.30-0.80 28.59-0.75L28.59-0.75Q30.84-0.80 30.89-2.20L30.89-2.20Q31.08-3.38 29.02-3.75L29.02-3.75L27.23-4.13Q25.41-4.64 25.41-6.19L25.41-6.19Q25.55-8.72 28.41-8.81L28.41-8.81Q31.64-8.81 31.73-6.09Z" transform="translate(-0.9375, 8.8125)"></path></g></g></g></g></g><defs v-gra="od"></defs></svg>